<svg xmlns="http://www.w3.org/2000/svg" viewBox="0 0 32 32">
  <!-- Sky background -->
  <rect width="32" height="32" fill="#87ceeb"/>

  <!-- Sand particles -->
  <rect x="2" y="26" width="4" height="4" fill="#c2b280"/>
  <rect x="8" y="24" width="4" height="4" fill="#c2b280"/>
  <rect x="14" y="26" width="4" height="4" fill="#c2b280"/>
  <rect x="20" y="25" width="4" height="4" fill="#c2b280"/>
  <rect x="26" y="27" width="4" height="4" fill="#c2b280"/>

  <!-- Water -->
  <rect x="6" y="20" width="4" height="4" fill="#4a90e2"/>
  <rect x="10" y="20" width="4" height="4" fill="#4a90e2"/>
  <rect x="14" y="21" width="4" height="4" fill="#4a90e2"/>
  <rect x="18" y="20" width="4" height="4" fill="#4a90e2"/>

  <!-- Fire -->
  <rect x="12" y="16" width="4" height="4" fill="#ffaa00"/>
  <rect x="16" y="15" width="4" height="4" fill="#ffaa00"/>

  <!-- Cloud -->
  <rect x="4" y="6" width="4" height="4" fill="#f0f0f0"/>
  <rect x="8" y="5" width="4" height="4" fill="#f0f0f0"/>
  <rect x="12" y="6" width="4" height="4" fill="#f0f0f0"/>

  <!-- Tree -->
  <rect x="24" y="18" width="4" height="4" fill="#8b4513"/>
  <rect x="24" y="14" width="4" height="4" fill="#8b4513"/>
  <rect x="22" y="11" width="4" height="4" fill="#228b22"/>
  <rect x="26" y="12" width="4" height="4" fill="#228b22"/>
</svg>
